<svg xmlns="http://www.w3.org/2000/svg" xmlns:xlink="http://www.w3.org/1999/xlink" xmlns:fi="http://pattern.flaticon.com/" x="0" y="0" width="700" height="350" viewBox="0 0 700 350"><rect x="0px" y="0px" width="100%" height="100%" opacity="1" fill="#000000"/><defs><path d="M408,0H153c-28.05,0-51,22.95-51,51v459c0,28.05,22.95,51,51,51h255c28.05,0,51-22.95,51-51V51C459,22.95,436.05,0,408,0z     M408,459H153V102h255V459z" transform="matrix(0.10695187002420425 0 0 0.10695187002420425 158 182)" id="L1_86" fill="#240100"/><path d="M510,459c28.05,0,51-22.95,51-51V153c0-28.05-22.95-51-51-51H102c-28.05,0-51,22.95-51,51v255c0,28.05,22.95,51,51,51H0    v51h612v-51H510z M102,153h408v255H102V153z" transform="matrix(0.11704850196838379 0 0 0.11704850196838379 81.18315888941288 -0.8168411105871201)" id="L1_87" fill="#240100"/><path d="M304.725,0v201.45h178.5C483.225,96.9,404.175,12.75,304.725,0z M75.225,354.45c0,112.2,91.8,204,204,204    s204-91.8,204-204v-102h-408V354.45z M253.725,0c-99.45,12.75-178.5,96.9-178.5,201.45h178.5V0z" transform="matrix(0.10744023323059082 0 0 0.10744023323059082 249.99999672118406 4)" id="L1_88" fill="#240100"/><path d="M255,0C114.75,0,0,114.75,0,255s114.75,255,255,255s255-114.75,255-255S395.25,0,255,0z M430.95,153H357    c-7.65-33.15-20.4-61.2-35.7-91.8C367.2,79.05,408,109.65,430.95,153z M255,51c20.4,30.6,38.25,63.75,48.45,102h-96.9    C216.75,117.3,234.6,81.6,255,51z M58.65,306c-5.1-15.3-7.65-33.15-7.65-51c0-17.85,2.55-35.7,7.65-51h86.7    c-2.55,17.85-2.55,33.15-2.55,51c0,17.85,2.55,33.15,2.55,51H58.65z M79.05,357H153c7.65,33.15,20.4,61.2,35.7,91.8    C142.8,430.95,102,400.35,79.05,357z M153,153H79.05c25.5-43.35,63.75-73.95,109.65-91.8C173.4,91.8,160.65,119.85,153,153z     M255,459c-20.4-30.6-38.25-63.75-48.45-102h96.9C293.25,392.7,275.4,428.4,255,459z M313.65,306h-117.3    c-2.55-17.85-5.1-33.15-5.1-51c0-17.85,2.55-33.15,5.1-51H316.2c2.55,17.85,5.1,33.15,5.1,51    C321.3,272.85,316.2,288.15,313.65,306z M321.3,448.8c15.3-28.05,28.05-58.649,35.7-91.8h73.95    C408,400.35,367.2,430.95,321.3,448.8z M367.2,306c2.55-17.85,2.55-33.15,2.55-51c0-17.85-2.55-33.15-2.55-51h86.7    c5.1,15.3,7.649,33.15,7.649,51c0,17.85-2.55,35.7-7.649,51H367.2z" transform="matrix(0.11764705926179886 0 0 0.11764705926179886 159 81)" id="L1_89" fill="#240100"/><path d="M440.813,280.5c0-7.65,2.55-15.3,2.55-25.5s0-17.85-2.55-25.5l53.55-43.35c5.1-5.1,5.1-10.2,2.55-15.3l-51-89.25    c-2.55-2.55-7.649-5.1-15.3-2.55l-63.75,25.5c-12.75-10.2-28.05-17.85-43.35-25.5l-10.2-66.3C315.863,5.1,308.212,0,303.113,0    h-102c-5.101,0-12.75,5.1-12.75,10.2l-10.2,68.85c-15.3,5.1-28.05,15.3-43.35,25.5l-61.2-25.5c-7.65-2.55-12.75,0-17.851,5.1    l-51,89.25c-2.55,2.55,0,10.2,5.1,15.3l53.55,40.8c0,7.65-2.55,15.3-2.55,25.5s0,17.85,2.55,25.5l-53.55,43.35    c-5.1,5.101-5.1,10.2-2.55,15.301l51,89.25c2.55,2.55,7.649,5.1,15.3,2.55l63.75-25.5c12.75,10.2,28.05,17.85,43.35,25.5    l10.2,66.3c0,5.1,5.1,10.2,12.75,10.2h102c5.101,0,12.75-5.101,12.75-10.2l10.2-66.3c15.3-7.65,30.6-15.3,43.35-25.5l63.75,25.5    c5.101,2.55,12.75,0,15.301-5.101l51-89.25c2.55-5.1,2.55-12.75-2.551-15.3L440.813,280.5z M252.113,344.25    c-48.45,0-89.25-40.8-89.25-89.25s40.8-89.25,89.25-89.25s89.25,40.8,89.25,89.25S300.563,344.25,252.113,344.25z" transform="matrix(0.11823801696300507 0 0 0.11823801696300507 62.00000144333535 119)" id="L1_90" fill="#240100"/><path d="M204,48.45c30.6,0,53.55,22.95,53.55,53.55S234.6,155.55,204,155.55c-30.6,0-53.55-22.95-53.55-53.55    S173.4,48.45,204,48.45 M204,277.95c76.5,0,155.55,38.25,155.55,53.55v28.05H48.45V331.5C48.45,316.2,127.5,277.95,204,277.95     M204,0c-56.1,0-102,45.9-102,102s45.9,102,102,102c56.1,0,102-45.9,102-102S260.1,0,204,0L204,0z M204,229.5    c-68.85,0-204,33.15-204,102V408h408v-76.5C408,262.65,272.85,229.5,204,229.5L204,229.5z" transform="matrix(-0.1422835737466812 0 0 0.1422835737466812 306.0258502960205 122.97415220737457)" id="L1_91" fill="#240100"/></defs><g fi:class="KUsePattern" opacity="0.7"><pattern id="pattern_L1_86" width="350" height="350" patternUnits="userSpaceOnUse"><use xlink:href="#L1_86" x="-350" y="-350"/><use xlink:href="#L1_86" x="0" y="-350"/><use xlink:href="#L1_86" x="350" y="-350"/><use xlink:href="#L1_86" x="-350" y="0"/><use xlink:href="#L1_86" x="0" y="0"/><use xlink:href="#L1_86" x="350" y="0"/><use xlink:href="#L1_86" x="-350" y="350"/><use xlink:href="#L1_86" x="0" y="350"/><use xlink:href="#L1_86" x="350" y="350"/></pattern><rect x="0" y="0" width="100%" height="100%" fill="url(#pattern_L1_86)"/></g><g fi:class="KUsePattern" opacity="0.7"><pattern id="pattern_L1_88" width="350" height="350" patternUnits="userSpaceOnUse"><use xlink:href="#L1_88" x="-350" y="-350"/><use xlink:href="#L1_88" x="0" y="-350"/><use xlink:href="#L1_88" x="350" y="-350"/><use xlink:href="#L1_88" x="-350" y="0"/><use xlink:href="#L1_88" x="0" y="0"/><use xlink:href="#L1_88" x="350" y="0"/><use xlink:href="#L1_88" x="-350" y="350"/><use xlink:href="#L1_88" x="0" y="350"/><use xlink:href="#L1_88" x="350" y="350"/></pattern><rect x="0" y="0" width="100%" height="100%" fill="url(#pattern_L1_88)"/></g><g fi:class="KUsePattern"><pattern id="pattern_L1_89" width="350" height="350" patternUnits="userSpaceOnUse"><use xlink:href="#L1_89" x="-350" y="-350"/><use xlink:href="#L1_89" x="0" y="-350"/><use xlink:href="#L1_89" x="350" y="-350"/><use xlink:href="#L1_89" x="-350" y="0"/><use xlink:href="#L1_89" x="0" y="0"/><use xlink:href="#L1_89" x="350" y="0"/><use xlink:href="#L1_89" x="-350" y="350"/><use xlink:href="#L1_89" x="0" y="350"/><use xlink:href="#L1_89" x="350" y="350"/></pattern><rect x="0" y="0" width="100%" height="100%" fill="url(#pattern_L1_89)"/></g><g fi:class="KUsePattern" opacity="0.7"><pattern id="pattern_L1_90" width="350" height="350" patternUnits="userSpaceOnUse"><use xlink:href="#L1_90" x="-350" y="-350"/><use xlink:href="#L1_90" x="0" y="-350"/><use xlink:href="#L1_90" x="350" y="-350"/><use xlink:href="#L1_90" x="-350" y="0"/><use xlink:href="#L1_90" x="0" y="0"/><use xlink:href="#L1_90" x="350" y="0"/><use xlink:href="#L1_90" x="-350" y="350"/><use xlink:href="#L1_90" x="0" y="350"/><use xlink:href="#L1_90" x="350" y="350"/></pattern><rect x="0" y="0" width="100%" height="100%" fill="url(#pattern_L1_90)"/></g><g fi:class="KUsePattern" opacity="0.7"><pattern id="pattern_L1_91" width="350" height="350" patternUnits="userSpaceOnUse"><use xlink:href="#L1_91" x="-350" y="-350"/><use xlink:href="#L1_91" x="0" y="-350"/><use xlink:href="#L1_91" x="350" y="-350"/><use xlink:href="#L1_91" x="-350" y="0"/><use xlink:href="#L1_91" x="0" y="0"/><use xlink:href="#L1_91" x="350" y="0"/><use xlink:href="#L1_91" x="-350" y="350"/><use xlink:href="#L1_91" x="0" y="350"/><use xlink:href="#L1_91" x="350" y="350"/></pattern><rect x="0" y="0" width="100%" height="100%" fill="url(#pattern_L1_91)"/></g><g fi:class="KUsePattern" opacity="0.7"><pattern id="pattern_L1_87" width="350" height="350" patternUnits="userSpaceOnUse"><use xlink:href="#L1_87" x="-350" y="-350"/><use xlink:href="#L1_87" x="0" y="-350"/><use xlink:href="#L1_87" x="350" y="-350"/><use xlink:href="#L1_87" x="-350" y="0"/><use xlink:href="#L1_87" x="0" y="0"/><use xlink:href="#L1_87" x="350" y="0"/><use xlink:href="#L1_87" x="-350" y="350"/><use xlink:href="#L1_87" x="0" y="350"/><use xlink:href="#L1_87" x="350" y="350"/></pattern><rect x="0" y="0" width="100%" height="100%" fill="url(#pattern_L1_87)"/></g></svg>